<svg width="1492" height="134" viewBox="0 0 1492 134" fill="none" xmlns="http://www.w3.org/2000/svg">
<path d="M59.2682 0C71.208 0 81.6092 2.33872 90.4717 7.01617C99.3343 11.6936 106.227 18.5867 111.151 27.6954C116.075 36.8041 118.536 47.8208 118.536 60.7453V131.461H88.6254V100.442H29.5418V131.461H0V60.7453C0 47.8208 2.46182 36.8041 7.38545 27.6954C12.3091 18.5867 19.2022 11.6936 28.0647 7.01617C36.9272 2.33872 47.3284 0 59.2682 0ZM29.5418 76.4394H88.6254V57.9757C88.6254 47.2669 85.9789 39.1675 80.686 33.6776C75.3931 28.2124 68.1923 25.4798 59.0836 25.4798C49.8518 25.4798 42.6263 28.2124 37.4073 33.6776C32.1636 39.1675 29.5418 47.2669 29.5418 57.9757V76.4394ZM148.078 131.461V2.21563H177.989V107.089H242.797V131.461H148.078ZM319.236 133.677C306.065 133.677 294.15 130.809 283.49 125.073C272.855 119.361 264.485 111.422 258.38 101.254C252.299 91.1118 249.259 79.6397 249.259 66.8383C249.259 54.0368 252.299 42.5525 258.38 32.3852C264.485 22.2425 272.855 14.3155 283.49 8.60404C294.15 2.86801 306.127 0 319.421 0C330.622 0 340.74 1.96945 349.775 5.90835C358.834 9.84726 366.441 15.5094 372.596 22.8949L353.394 40.6199C344.654 30.5265 333.822 25.4798 320.898 25.4798C312.897 25.4798 305.757 27.2277 299.48 30.7234C293.202 34.2438 288.303 39.1429 284.783 45.4205C281.287 51.6981 279.539 58.8374 279.539 66.8383C279.539 74.8392 281.287 81.9785 284.783 88.2561C288.303 94.5337 293.202 99.4204 299.48 102.916C305.757 106.437 312.897 108.197 320.898 108.197C333.822 108.197 344.654 103.089 353.394 92.872L372.596 110.597C366.441 118.106 358.81 123.829 349.701 127.768C340.592 131.707 330.437 133.677 319.236 133.677ZM452.506 133.677C439.089 133.677 427.002 130.784 416.244 124.999C405.461 119.213 397.029 111.249 390.949 101.107C384.843 90.9395 381.791 79.5166 381.791 66.8383C381.791 54.1599 384.843 42.7371 390.949 32.5698C397.029 22.4271 405.461 14.4632 416.244 8.67789C427.002 2.89263 439.089 0 452.506 0C465.923 0 477.986 2.89263 488.695 8.67789C499.404 14.4632 507.836 22.4271 513.99 32.5698C520.145 42.7371 523.222 54.1599 523.222 66.8383C523.222 79.5166 520.145 90.9395 513.99 101.107C507.836 111.249 499.404 119.213 488.695 124.999C477.986 130.784 465.923 133.677 452.506 133.677ZM452.506 108.197C460.138 108.197 467.031 106.437 473.186 102.916C479.34 99.4204 484.178 94.5337 487.698 88.2561C491.194 81.9785 492.942 74.8392 492.942 66.8383C492.942 58.8374 491.194 51.6981 487.698 45.4205C484.178 39.1429 479.34 34.2438 473.186 30.7234C467.031 27.2277 460.138 25.4798 452.506 25.4798C444.875 25.4798 437.982 27.2277 431.827 30.7234C425.673 34.2438 420.847 39.1429 417.352 45.4205C413.831 51.6981 412.071 58.8374 412.071 66.8383C412.071 74.8392 413.831 81.9785 417.352 88.2561C420.847 94.5337 425.673 99.4204 431.827 102.916C437.982 106.437 444.875 108.197 452.506 108.197ZM634.373 2.21563H664.284V131.461H634.373V78.4704H575.659V131.461H545.748V2.21563H575.659V53.1752H634.373V2.21563ZM757.525 133.677C744.108 133.677 732.009 130.784 721.226 124.999C710.468 119.213 702.036 111.249 695.931 101.107C689.85 90.9395 686.81 79.5166 686.81 66.8383C686.81 54.1599 689.85 42.7371 695.931 32.5698C702.036 22.4271 710.468 14.4632 721.226 8.67789C732.009 2.89263 744.108 0 757.525 0C770.942 0 783.005 2.89263 793.714 8.67789C804.423 14.4632 812.855 22.4271 819.009 32.5698C825.164 42.7371 828.241 54.1599 828.241 66.8383C828.241 79.5166 825.164 90.9395 819.009 101.107C812.855 111.249 804.423 119.213 793.714 124.999C783.005 130.784 770.942 133.677 757.525 133.677ZM757.525 108.197C765.157 108.197 772.05 106.437 778.204 102.916C784.359 99.4204 789.184 94.5337 792.68 88.2561C796.2 81.9785 797.961 74.8392 797.961 66.8383C797.961 58.8374 796.2 51.6981 792.68 45.4205C789.184 39.1429 784.359 34.2438 778.204 30.7234C772.05 27.2277 765.157 25.4798 757.525 25.4798C749.894 25.4798 743 27.2277 736.846 30.7234C730.691 34.2438 725.854 39.1429 722.334 45.4205C718.838 51.6981 717.09 58.8374 717.09 66.8383C717.09 74.8392 718.838 81.9785 722.334 88.2561C725.854 94.5337 730.691 99.4204 736.846 102.916C743 106.437 749.894 108.197 757.525 108.197ZM850.767 131.461V2.21563H880.678V107.089H945.485V131.461H850.767ZM1074.69 25.4798C1064.35 25.4798 1056.54 27.72 1051.24 32.2005C1045.95 36.7057 1043.31 43.451 1043.31 52.4367V60.376H1096.48V84.3787H1043.31V131.461H1013.39V52.6213C1013.39 36.004 1018.59 23.0795 1028.98 13.8477C1039.39 4.6159 1053.95 0 1072.66 0C1080.05 0 1087 0.763159 1093.53 2.28948C1100.05 3.84043 1105.71 6.09298 1110.51 9.04716L1101.28 32.6806C1093.9 27.8801 1085.03 25.4798 1074.69 25.4798ZM1242.53 131.461H1210.4L1185.47 95.4569H1184H1157.96V131.461H1128.05V2.21563H1184C1195.45 2.21563 1205.38 4.12353 1213.8 7.93935C1222.24 11.7552 1228.74 17.1712 1233.3 24.1873C1237.85 31.2035 1240.13 39.5121 1240.13 49.1132C1240.13 58.7143 1237.81 66.986 1233.18 73.9283C1228.58 80.8953 1222.03 86.2251 1213.54 89.9178L1242.53 131.461ZM1209.85 49.1132C1209.85 41.8509 1207.51 36.2748 1202.83 32.3852C1198.15 28.5201 1191.32 26.5876 1182.34 26.5876H1157.96V71.6388H1182.34C1191.32 71.6388 1198.15 69.6694 1202.83 65.7305C1207.51 61.7916 1209.85 56.2525 1209.85 49.1132ZM1360.14 97.8572L1369.37 120.383C1363.22 124.568 1355.49 127.83 1346.18 130.169C1336.9 132.507 1327.03 133.677 1316.57 133.677C1303.49 133.677 1292.42 132.039 1283.33 128.765C1274.22 125.516 1267.33 120.974 1262.65 115.139C1257.98 109.28 1255.64 102.596 1255.64 95.0876C1255.64 88.1945 1257.54 82.1015 1261.36 76.8086C1265.18 71.5157 1270.41 67.5768 1277.05 64.9919C1272.01 62.2839 1268.09 58.5912 1265.31 53.9138C1262.55 49.2363 1261.18 44.0049 1261.18 38.2197C1261.18 31.2035 1263.33 24.8028 1267.64 19.0175C1271.95 13.2323 1278.47 8.61635 1287.21 5.1698C1295.95 1.72326 1306.66 0 1319.34 0C1327.71 0 1335.89 0.824701 1343.89 2.47412C1351.89 4.14815 1358.85 6.40072 1364.76 9.23181L1356.45 32.1267C1345.1 26.8338 1333.1 24.1873 1320.44 24.1873C1310.84 24.1873 1303.61 25.6275 1298.73 28.5078C1293.86 31.4128 1291.42 35.327 1291.42 40.2507C1291.42 44.805 1293.06 48.2762 1296.33 50.6642C1299.6 53.0767 1304.57 54.283 1311.21 54.283H1346.48V77.9165H1309.37C1301.86 77.9165 1296.07 79.2089 1292.01 81.7938C1287.92 84.3787 1285.88 88.133 1285.88 93.0566C1285.88 98.2264 1288.5 102.251 1293.75 105.132C1298.96 108.037 1307 109.489 1317.86 109.489C1325.47 109.489 1333.1 108.468 1340.75 106.424C1348.39 104.406 1354.85 101.55 1360.14 97.8572ZM1482.33 97.8572L1491.56 120.383C1485.41 124.568 1477.69 127.83 1468.41 130.169C1459.11 132.507 1449.22 133.677 1438.76 133.677C1425.71 133.677 1414.63 132.039 1405.52 128.765C1396.42 125.516 1389.52 120.974 1384.85 115.139C1380.17 109.28 1377.83 102.596 1377.83 95.0876C1377.83 88.1945 1379.74 82.1015 1383.55 76.8086C1387.37 71.5157 1392.6 67.5768 1399.25 64.9919C1394.2 62.2839 1390.3 58.5912 1387.54 53.9138C1384.76 49.2363 1383.37 44.0049 1383.37 38.2197C1383.37 31.2035 1385.52 24.8028 1389.83 19.0175C1394.14 13.2323 1400.66 8.61635 1409.4 5.1698C1418.14 1.72326 1428.85 0 1441.53 0C1449.9 0 1458.08 0.824701 1466.08 2.47412C1474.09 4.14815 1481.04 6.40072 1486.95 9.23181L1478.64 32.1267C1467.32 26.8338 1455.31 24.1873 1442.64 24.1873C1433.04 24.1873 1425.81 25.6275 1420.96 28.5078C1416.09 31.4128 1413.65 35.327 1413.65 40.2507C1413.65 44.805 1415.29 48.2762 1418.56 50.6642C1421.81 53.0767 1426.76 54.283 1433.4 54.283H1468.67V77.9165H1431.56C1424.05 77.9165 1418.26 79.2089 1414.2 81.7938C1410.14 84.3787 1408.11 88.133 1408.11 93.0566C1408.11 98.2264 1410.73 102.251 1415.97 105.132C1421.19 108.037 1429.22 109.489 1440.05 109.489C1447.68 109.489 1455.31 108.468 1462.95 106.424C1470.58 104.406 1477.04 101.55 1482.33 97.8572Z" fill="currentColor"/>
</svg>
